<?xml version="1.0" standalone="no"?>
<!DOCTYPE svg PUBLIC "-//W3C//DTD SVG 20010904//EN"
 "http://www.w3.org/TR/2001/REC-SVG-20010904/DTD/svg10.dtd">
<svg version="1.0" xmlns="http://www.w3.org/2000/svg"
 width="1080.000000pt" height="1350.000000pt" viewBox="0 0 1080.000000 1350.000000"
 preserveAspectRatio="xMidYMid meet">

<g transform="translate(0.000000,1350.000000) scale(0.100000,-0.100000)"
fill="#000000" stroke="none">
<path d="M4639 9544 c-145 -108 -288 -215 -317 -238 l-54 -41 2 -184 c1 -177
0 -185 -23 -220 -34 -52 -36 -63 -22 -99 24 -55 104 -55 135 1 14 26 13 31
-18 90 l-33 62 1 169 0 169 174 -7 174 -6 63 63 c46 46 86 74 142 101 158 75
397 119 523 98 38 -7 77 -13 86 -15 10 -1 67 41 133 98 l115 100 -153 12
c-198 15 -616 43 -643 43 -11 0 -139 -88 -285 -196z"/>
<path d="M5115 9400 c-156 -33 -318 -113 -360 -177 -9 -14 -27 -74 -40 -134
-20 -96 -21 -108 -6 -100 9 5 25 19 36 31 34 38 137 106 207 139 172 78 375
96 558 48 52 -14 97 -23 98 -22 2 2 -27 50 -65 107 -61 90 -74 104 -109 115
-59 18 -217 14 -319 -7z"/>
<path d="M5255 9154 c-229 -33 -306 -54 -390 -105 -75 -45 -118 -119 -71 -119
7 0 21 10 32 21 10 12 36 32 56 45 30 19 42 22 62 14 20 -7 24 -6 19 6 -4 10
9 20 43 34 27 11 76 34 109 51 51 26 64 29 88 20 16 -6 53 -11 83 -11 34 0 53
-4 49 -10 -3 -5 -36 -10 -73 -11 -50 -1 -60 -3 -40 -9 29 -9 119 -74 131 -95
5 -9 -4 -37 -24 -72 -26 -49 -30 -66 -26 -111 2 -29 0 -55 -5 -58 -5 -3 -24 0
-44 6 -42 14 -80 67 -89 125 -9 51 -35 137 -46 149 -6 7 -58 -6 -77 -20 -2 -1
10 -34 27 -74 31 -71 39 -120 22 -120 -9 0 -26 -48 -23 -62 4 -18 -41 -6 -64
17 -14 14 -29 25 -34 25 -13 0 -13 17 0 25 6 3 17 19 25 34 12 24 12 31 1 47
-13 17 -15 16 -29 -19 -10 -22 -23 -37 -33 -37 -13 0 -15 -6 -11 -29 8 -37
-10 -53 -49 -45 -26 5 -36 -1 -77 -45 -26 -27 -47 -56 -47 -62 0 -7 23 -33 50
-58 38 -35 50 -53 51 -76 0 -28 1 -27 26 20 18 35 28 73 32 125 6 69 8 75 29
78 40 6 82 -17 82 -44 0 -28 6 -30 26 -9 23 22 29 19 49 -24 10 -22 29 -50 42
-63 28 -26 53 -69 53 -92 0 -9 -28 -25 -75 -43 -71 -26 -94 -43 -60 -43 18 0
19 -21 3 -41 -7 -9 -101 -39 -208 -68 -107 -29 -271 -81 -363 -117 -92 -36
-173 -62 -179 -58 -32 20 51 335 119 453 64 112 83 147 83 154 0 15 -101 -61
-126 -94 -74 -98 -152 -305 -179 -474 -9 -55 -20 -102 -23 -105 -17 -14 -203
-92 -208 -88 -2 3 -48 117 -100 254 -53 137 -109 283 -125 324 -16 41 -60 156
-98 255 l-69 180 -126 3 c-123 3 -126 2 -136 -20 -5 -13 -73 -189 -150 -393
-77 -203 -147 -386 -155 -405 -8 -19 -66 -172 -130 -340 -64 -168 -127 -332
-140 -365 -53 -134 -235 -613 -235 -619 0 -3 96 -6 213 -6 l213 0 78 223 c122
348 286 815 311 887 13 36 45 127 72 203 26 76 52 139 58 139 9 0 32 -63 142
-381 l46 -135 -24 -15 c-80 -52 -185 -140 -250 -209 -241 -251 -180 -459 186
-638 107 -52 379 -148 400 -141 5 2 -17 14 -50 26 -89 33 -226 108 -289 157
-75 59 -109 120 -109 193 0 82 54 182 152 279 40 41 77 70 81 65 4 -4 13 -24
19 -43 7 -19 46 -132 88 -250 41 -118 86 -248 100 -287 l25 -73 214 0 c118 0
214 2 214 4 0 6 -82 225 -115 306 -26 63 -192 504 -200 528 -6 20 1 25 62 53
197 90 426 176 710 269 193 63 598 182 708 208 22 6 112 29 200 51 88 23 198
50 245 61 227 51 449 98 488 104 l42 6 -7 -57 c-5 -32 -8 -251 -8 -488 1 -415
2 -433 24 -520 83 -327 295 -507 642 -545 400 -44 703 155 832 547 19 59 38
125 41 146 l7 37 -211 0 c-203 0 -210 -1 -210 -20 0 -41 -54 -152 -97 -200
-58 -64 -112 -96 -190 -110 -73 -13 -176 0 -240 31 -58 28 -126 105 -154 175
l-24 59 0 430 0 430 31 65 c52 109 46 106 239 135 94 14 183 27 198 30 37 6
72 -13 123 -67 53 -57 73 -89 100 -168 l23 -65 206 -3 206 -2 -6 37 c-4 21
-15 69 -26 107 -11 37 -19 70 -16 72 2 2 164 4 360 4 238 1 359 4 363 11 11
18 -29 63 -78 87 -37 19 -69 24 -160 29 -62 3 -122 10 -132 16 -11 5 -93 58
-184 118 l-164 109 -70 0 -69 0 100 -114 c56 -62 101 -116 101 -120 0 -3 -30
-6 -67 -5 l-68 0 -45 71 c-66 103 -165 190 -275 243 -109 52 -158 64 -284 72
-351 20 -626 -123 -747 -391 l-29 -64 -60 -6 c-33 -3 -135 -9 -226 -12 l-166
-7 -23 37 c-12 21 -33 42 -46 46 -17 7 -24 17 -24 35 0 22 -2 24 -19 13 -15
-9 -23 -9 -35 1 -12 10 -19 11 -29 2 -18 -14 -52 21 -68 69 -7 19 -23 45 -36
58 -25 23 -23 42 3 42 18 0 85 -45 133 -90 18 -17 35 -29 38 -26 9 8 -38 86
-61 101 -13 9 -26 25 -29 36 -5 17 -8 18 -25 8 -17 -10 -24 -9 -48 10 -31 23
-116 82 -226 155 -72 48 -84 66 -43 66 37 0 30 18 -12 30 -39 12 -265 22 -318
14z m351 -212 c17 -11 36 -51 29 -62 -10 -16 -37 -12 -75 11 l-34 21 23 19
c25 20 39 23 57 11z m1769 -321 c12 -5 -22 -10 -90 -14 -61 -3 -112 -4 -114
-2 -2 2 12 8 30 14 41 11 146 13 174 2z m-2149 -167 c10 -14 13 -28 8 -33 -10
-10 -84 -24 -84 -17 0 18 36 76 47 76 7 0 20 -11 29 -26z"/>
<path d="M5008 8993 c7 -3 16 -2 19 1 4 3 -2 6 -13 5 -11 0 -14 -3 -6 -6z"/>
<path d="M8141 8435 c-22 -30 -41 -57 -41 -60 0 -9 87 -6 114 5 15 5 58 32 98
60 l71 50 -100 0 -101 0 -41 -55z"/>
<path d="M6145 8323 c-11 -2 -76 -15 -145 -30 -268 -55 -738 -180 -991 -263
-173 -57 -202 -83 -164 -150 15 -27 20 -90 7 -90 -18 0 -40 27 -52 63 -6 20
-20 42 -30 47 -24 13 -67 13 -75 0 -3 -5 -22 -10 -41 -10 -76 0 -105 -77 -64
-167 20 -44 61 -93 79 -93 6 0 14 15 19 33 7 27 13 32 38 32 29 0 29 -1 32
-62 3 -60 4 -63 28 -63 43 0 61 -16 68 -62 9 -58 30 -78 79 -78 35 0 47 6 79
41 36 38 40 40 52 24 12 -16 13 -17 19 -1 6 15 9 15 31 1 19 -13 34 -14 82 -6
66 10 74 8 74 -20 0 -24 73 -59 138 -67 50 -5 86 -42 79 -80 -4 -22 -2 -23 37
-17 61 9 184 -10 207 -31 25 -22 20 -46 -21 -111 -17 -26 -35 -64 -40 -84 -7
-24 -35 -60 -87 -112 -42 -42 -75 -79 -72 -82 4 -3 37 1 75 9 327 70 600 279
728 558 36 78 81 216 74 224 -11 10 -40 -10 -53 -37 -25 -46 -48 -53 -78 -21
-52 54 -69 113 -78 275 -5 90 -4 169 1 199 6 28 10 93 10 144 0 98 0 97 -45
87z m-1237 -546 c2 -12 -3 -17 -17 -17 -12 0 -21 6 -21 13 0 31 32 34 38 4z
m11 -56 c25 -16 67 -32 92 -36 64 -9 80 -21 55 -40 -29 -22 -73 -19 -79 5 -4
14 -14 20 -34 20 -15 0 -46 11 -68 25 -22 13 -55 25 -72 25 -36 0 -43 13 -15
30 24 15 68 4 121 -29z m281 -82 c0 -5 -4 -9 -10 -9 -5 0 -10 7 -10 16 0 8 5
12 10 9 6 -3 10 -10 10 -16z m-250 -8 c0 -11 -26 -22 -34 -14 -12 12 -5 23 14
23 11 0 20 -4 20 -9z"/>
<path d="M4330 7745 c-19 -13 -47 -33 -62 -45 l-27 -20 24 -70 c52 -153 142
-288 277 -415 224 -211 434 -304 727 -322 l105 -6 -49 59 c-68 81 -91 100
-136 113 -51 15 -154 102 -178 149 -15 30 -18 51 -14 100 4 47 2 67 -11 87
-14 21 -19 23 -35 13 -26 -16 -93 14 -129 58 -27 32 -128 88 -225 124 -60 23
-102 62 -143 136 -16 28 -34 49 -41 47 -6 -2 -14 1 -18 6 -9 16 -26 12 -65
-14z"/>
<path d="M2322 6513 c-25 -22 -172 -353 -172 -388 0 -17 7 -28 22 -34 36 -13
53 -3 76 45 l22 44 80 0 81 0 18 -44 c20 -46 42 -58 79 -45 34 13 28 44 -43
203 -84 191 -101 222 -120 230 -22 8 -20 9 -43 -11z m55 -202 c11 -28 18 -52
15 -55 -3 -3 -25 -6 -50 -6 -31 0 -43 4 -39 13 30 76 40 97 46 97 4 0 16 -22
28 -49z"/>
<path d="M3977 6518 c-21 -16 -177 -363 -177 -395 0 -15 8 -27 22 -32 37 -13
59 -1 79 45 l18 44 81 0 80 0 22 -44 c12 -25 29 -46 38 -49 23 -6 56 9 64 28
6 18 -143 365 -172 398 -18 20 -32 21 -55 5z m48 -200 c9 -24 19 -49 22 -55 4
-10 -9 -13 -47 -13 -28 0 -50 4 -48 8 2 4 12 29 23 55 11 26 23 47 26 47 4 0
15 -19 24 -42z"/>
<path d="M4291 6514 c-20 -14 -21 -23 -21 -200 0 -109 4 -193 10 -205 12 -22
59 -26 78 -7 8 8 12 45 12 101 0 54 4 86 10 82 5 -3 28 -42 51 -86 23 -44 49
-84 59 -89 28 -15 56 13 102 103 l43 82 5 -90 c3 -49 9 -96 13 -102 10 -16 59
-17 75 -1 9 9 12 69 12 210 0 189 -1 198 -21 208 -34 19 -62 -10 -134 -139
-36 -67 -70 -123 -75 -126 -4 -3 -41 54 -81 127 -78 138 -99 159 -138 132z"/>
<path d="M5513 6514 c-24 -9 -59 -34 -82 -59 -86 -94 -80 -230 15 -314 86 -75
199 -77 284 -3 106 90 107 240 2 334 -63 57 -136 71 -219 42z m147 -103 c33
-24 55 -87 46 -133 -4 -20 -20 -50 -35 -67 -25 -27 -36 -31 -80 -31 -63 0 -94
25 -111 91 -10 37 -9 50 7 89 31 76 108 99 173 51z"/>
<path d="M5812 6514 c-12 -8 -22 -21 -22 -28 0 -25 162 -371 181 -388 39 -34
56 -13 144 183 47 101 84 191 85 200 0 9 -9 24 -21 35 -38 34 -64 5 -123 -136
-28 -69 -56 -124 -61 -123 -4 1 -31 55 -58 120 -65 156 -78 170 -125 137z"/>
<path d="M7120 6514 c-50 -21 -70 -51 -70 -105 0 -61 19 -83 111 -128 58 -28
75 -41 77 -60 8 -53 -59 -67 -119 -25 -41 28 -66 29 -83 1 -15 -24 9 -65 54
-91 44 -26 131 -27 178 -3 41 22 72 71 72 114 0 47 -46 94 -124 127 -75 32
-92 59 -56 88 28 23 41 23 73 -2 30 -24 60 -26 77 -5 20 25 -3 63 -53 85 -50
23 -90 24 -137 4z"/>
<path d="M7917 6516 c-17 -18 -177 -370 -177 -391 0 -8 11 -22 24 -30 32 -21
60 -7 84 43 l17 37 80 0 80 0 20 -38 c27 -52 49 -63 81 -43 13 9 24 23 24 30
0 23 -161 380 -178 394 -21 16 -37 15 -55 -2z m53 -202 c11 -25 20 -50 20 -55
0 -5 -20 -9 -45 -9 -29 0 -45 4 -45 13 1 16 37 97 45 97 3 0 15 -21 25 -46z"/>
<path d="M8270 6508 c-36 -19 -48 -31 -60 -66 -14 -40 -13 -46 5 -80 16 -29
37 -45 100 -77 63 -32 81 -45 83 -64 8 -52 -62 -67 -118 -26 -39 29 -62 32
-80 9 -19 -22 -2 -64 38 -90 67 -45 164 -39 223 14 23 21 32 39 36 73 5 41 2
50 -25 81 -19 20 -58 46 -96 62 -75 32 -92 59 -56 88 28 23 41 23 73 -2 30
-24 60 -26 77 -5 20 25 -3 63 -53 85 -55 26 -93 25 -147 -2z"/>
<path d="M2633 6509 c-10 -10 -13 -64 -13 -200 0 -157 3 -190 16 -203 12 -12
37 -16 107 -16 110 0 162 22 210 88 25 35 31 53 34 114 4 62 1 80 -19 118 -13
26 -41 58 -66 75 -40 28 -51 30 -150 33 -78 3 -110 0 -119 -9z m210 -84 c29
-12 47 -60 47 -124 0 -52 -4 -65 -28 -92 -24 -27 -37 -33 -85 -37 l-57 -4 0
134 c0 74 2 137 5 140 6 6 94 -6 118 -17z"/>
<path d="M3076 6504 c-13 -13 -16 -46 -16 -200 0 -171 1 -185 20 -204 45 -45
80 -10 80 78 0 59 1 62 24 62 19 0 40 -19 86 -75 62 -76 90 -91 118 -63 21 21
13 44 -28 91 -22 25 -40 48 -40 52 0 4 16 25 35 46 30 33 35 46 35 86 0 56
-30 106 -77 128 -45 21 -216 21 -237 -1z m208 -86 c37 -53 3 -98 -74 -98 l-50
0 0 60 0 60 54 0 c45 0 58 -4 70 -22z"/>
<path d="M3482 6508 c-19 -19 -17 -392 2 -407 9 -8 56 -11 141 -9 109 3 129 6
139 21 8 12 8 22 0 35 -9 14 -28 18 -103 20 l-92 3 3 47 3 47 59 5 c70 6 91
26 62 59 -15 16 -31 21 -73 21 l-53 0 0 45 0 45 84 0 c64 0 88 4 100 16 19 18
19 20 6 45 -10 17 -22 19 -138 19 -86 0 -132 -4 -140 -12z"/>
<path d="M4842 6508 c-16 -16 -15 -43 1 -56 7 -6 53 -12 101 -14 l89 -3 -112
-133 c-61 -73 -111 -138 -111 -146 0 -7 9 -25 21 -40 20 -26 22 -26 154 -26
124 0 135 2 145 20 8 14 8 26 0 40 -10 18 -21 20 -105 20 -51 0 -96 3 -98 8
-3 4 42 62 99 130 110 130 124 161 86 195 -15 14 -41 17 -138 17 -80 0 -124
-4 -132 -12z"/>
<path d="M6282 6508 c-19 -19 -17 -391 2 -407 9 -8 56 -11 141 -9 109 3 129 6
139 21 8 12 8 22 0 35 -9 13 -30 18 -105 22 l-94 5 0 45 0 45 62 3 c72 3 94
23 67 60 -13 18 -25 22 -75 22 l-59 0 0 45 0 45 89 0 c96 0 115 9 109 52 -3
23 -6 23 -133 26 -93 2 -134 -1 -143 -10z"/>
<path d="M6652 6508 c-9 -9 -12 -69 -12 -210 l0 -198 24 -11 c17 -8 29 -8 44
0 18 9 22 22 24 79 3 64 4 67 29 70 21 3 35 -9 85 -73 53 -67 62 -75 89 -73
48 5 46 46 -5 107 l-42 50 36 35 c72 72 53 176 -41 225 -30 15 -215 15 -231
-1z m202 -84 c9 -8 16 -29 16 -44 0 -40 -35 -62 -92 -58 l-43 3 -3 44 c-2 24
-1 50 2 57 8 20 100 19 120 -2z"/>
<path d="M7426 6504 c-13 -13 -16 -45 -16 -198 0 -230 -10 -216 163 -216 116
0 127 2 137 20 8 14 8 26 0 40 -10 18 -21 20 -106 20 l-95 0 3 48 3 47 55 3
c59 3 80 14 80 43 0 26 -30 39 -89 39 l-51 0 0 45 0 45 81 0 c86 0 119 10 119
38 0 36 -20 42 -146 42 -98 0 -126 -3 -138 -16z"/>
<path d="M2239 5877 c-48 -31 -82 -101 -74 -152 8 -54 39 -100 79 -119 31 -15
298 -16 3094 -14 l3061 3 30 29 c39 37 66 106 56 143 -12 48 -46 93 -86 113
-38 20 -74 20 -3082 20 l-3044 0 -34 -23z m172 -33 c48 -24 35 -49 -26 -49
-42 0 -51 -3 -64 -26 -13 -24 -13 -29 3 -54 16 -25 21 -26 62 -20 35 5 45 3
50 -10 9 -22 -13 -43 -51 -51 -47 -9 -99 19 -121 64 -15 32 -15 41 -3 76 15
42 66 86 101 86 10 0 33 -7 49 -16z m275 -10 c76 -50 48 -183 -42 -200 -93
-17 -170 90 -118 165 41 59 103 72 160 35z m224 -36 l35 -51 6 47 c5 50 24 72
46 54 10 -8 13 -38 11 -112 -4 -126 -16 -134 -80 -50 l-43 58 -3 -53 c-3 -55
-20 -73 -47 -51 -23 19 -21 195 2 208 24 14 34 8 73 -50z m311 46 c44 -22 35
-50 -14 -46 -49 4 -47 -11 6 -40 34 -19 43 -29 45 -54 6 -56 -61 -90 -122 -62
-29 13 -43 45 -27 61 9 9 16 8 29 -1 31 -22 43 -25 55 -13 13 13 6 21 -52 53
-41 23 -43 67 -5 97 32 25 45 26 85 5z m309 -78 c0 -95 -13 -122 -65 -132 -43
-8 -88 9 -104 39 -7 13 -11 53 -9 97 3 73 4 75 28 75 24 0 25 -3 30 -80 5 -77
6 -80 30 -80 24 0 25 3 30 78 5 78 17 101 47 90 9 -4 13 -28 13 -87z m144 78
c12 -11 16 -36 16 -90 l0 -74 39 0 c44 0 59 -13 41 -35 -8 -9 -31 -15 -60 -15
-80 0 -80 0 -80 109 0 62 4 101 12 109 15 15 13 15 32 -4z m432 -9 c8 -13 31
-59 49 -102 25 -57 31 -80 23 -90 -15 -19 -25 -16 -50 12 -13 15 -32 25 -49
25 -17 0 -32 -9 -43 -25 -19 -28 -44 -33 -53 -9 -3 8 12 54 32 102 55 124 62
131 91 87z m271 -60 l22 -30 1 40 c0 49 11 68 36 63 17 -3 19 -13 19 -108 0
-131 -12 -139 -77 -56 l-43 56 -3 -51 c-3 -53 -20 -71 -47 -49 -11 9 -15 35
-15 106 0 78 3 95 18 103 18 11 39 -7 89 -74z m334 69 c48 -24 35 -50 -23 -46
-41 3 -49 0 -64 -24 -16 -24 -16 -29 -3 -53 13 -23 22 -26 65 -26 42 0 49 -3
49 -20 0 -50 -106 -56 -151 -8 -50 54 -37 133 29 173 39 24 59 25 98 4z m215
-39 c32 44 44 54 59 49 22 -9 18 -30 -15 -79 -21 -30 -30 -56 -30 -83 0 -47
-21 -72 -45 -52 -9 7 -15 29 -15 52 0 27 -9 53 -30 83 -34 49 -35 56 -17 74
10 10 18 5 45 -26 33 -37 34 -37 48 -18z m812 43 c8 -8 12 -46 12 -104 0 -96
-10 -121 -44 -108 -13 5 -16 23 -16 103 0 89 8 121 30 121 3 0 11 -5 18 -12z
m169 -56 l32 -63 20 48 c29 66 36 78 51 78 7 0 17 -7 23 -16 7 -11 0 -38 -28
-100 -62 -139 -72 -140 -133 -3 -34 76 -40 99 -31 110 19 23 32 12 66 -54z
m309 -58 c29 -65 32 -80 21 -91 -17 -17 -44 -7 -52 18 -10 30 -68 26 -89 -6
-18 -28 -44 -33 -52 -10 -7 17 62 179 85 203 14 13 18 12 34 -11 11 -14 35
-60 53 -103z m686 28 l3 -77 43 -3 c33 -2 42 -7 42 -22 0 -22 -19 -30 -71 -30
-73 0 -79 9 -79 110 0 68 4 92 16 105 28 28 43 1 46 -83z m226 86 c19 -19 16
-192 -3 -208 -12 -10 -18 -10 -30 0 -11 9 -15 35 -15 104 0 84 8 116 30 116 3
0 11 -5 18 -12z m342 -108 c0 -82 -3 -99 -17 -104 -21 -9 -34 4 -42 45 l-7 33
-18 -37 c-22 -48 -43 -45 -73 8 l-23 40 0 -41 c0 -45 -21 -64 -47 -43 -10 9
-13 35 -11 108 3 94 3 96 27 96 19 0 31 -12 55 -57 17 -32 33 -58 36 -58 3 0
18 22 33 50 38 67 55 84 73 69 10 -8 14 -38 14 -109z m148 1 c-3 -98 -4 -106
-23 -106 -19 0 -20 8 -23 104 -3 106 3 126 35 114 11 -4 13 -29 11 -112z
m-3653 84 c0 -14 -8 -21 -27 -23 -28 -3 -28 -4 -28 -83 0 -62 -3 -81 -15 -85
-32 -12 -45 15 -45 92 0 66 -2 74 -19 74 -10 0 -24 7 -31 15 -23 27 -1 36 83
33 74 -3 82 -5 82 -23z m1352 3 c46 -43 25 -102 -42 -119 -40 -10 -45 -15 -45
-39 0 -31 -25 -47 -46 -29 -10 8 -14 38 -14 104 0 50 3 95 7 98 3 4 31 7 62 7
42 0 60 -5 78 -22z m258 -3 c30 -29 32 -55 6 -86 -19 -23 -19 -24 0 -48 24
-30 24 -47 2 -56 -13 -4 -27 4 -50 32 -35 41 -34 41 -49 -2 -6 -20 -16 -30
-29 -30 -18 0 -20 8 -23 94 -1 52 -1 100 2 108 4 9 24 13 61 13 46 0 60 -4 80
-25z m853 3 c-2 -17 -11 -24 -30 -26 -28 -3 -28 -4 -28 -83 0 -65 -3 -81 -16
-86 -27 -10 -45 26 -44 87 2 78 2 78 -22 82 -15 2 -24 11 -26 26 -3 21 -1 22
83 22 84 0 86 -1 83 -22z m240 0 c-2 -19 -10 -24 -45 -26 -49 -4 -60 -29 -15
-34 19 -2 27 -9 27 -23 0 -14 -8 -21 -27 -23 -20 -2 -28 -9 -28 -23 0 -16 7
-19 45 -19 37 0 45 -3 45 -19 0 -23 -19 -31 -75 -31 -75 0 -75 0 -75 109 0 54
3 101 7 104 3 4 37 7 75 7 66 0 69 -1 66 -22z m1200 0 c-2 -17 -11 -24 -30
-26 -27 -3 -27 -4 -30 -85 -3 -74 -5 -82 -23 -82 -18 0 -20 8 -23 82 -3 81 -3
82 -30 85 -19 2 -28 9 -30 26 -3 21 -1 22 83 22 84 0 86 -1 83 -22z m240 0
c-2 -19 -10 -24 -45 -26 -49 -4 -60 -29 -15 -34 19 -2 27 -9 27 -23 0 -14 -8
-21 -27 -23 -20 -2 -28 -9 -28 -23 0 -16 7 -19 44 -19 49 0 65 -13 46 -35 -15
-18 -121 -20 -138 -3 -13 13 -17 189 -5 201 3 4 37 7 75 7 66 0 69 -1 66 -22z
m253 -7 c24 -24 29 -38 29 -75 0 -65 -37 -105 -106 -112 -72 -9 -84 6 -84 106
0 109 1 110 72 110 52 0 63 -3 89 -29z"/>
<path d="M2586 5784 c-33 -33 -12 -94 32 -94 34 0 52 16 52 48 0 56 -48 82
-84 46z"/>
<path d="M4075 5747 c-8 -19 -2 -31 13 -26 5 2 6 13 2 24 -7 19 -8 19 -15 2z"/>
<path d="M6135 5740 c-8 -13 -1 -24 14 -19 6 3 7 10 2 18 -6 10 -10 10 -16 1z"/>
<path d="M5230 5780 c0 -15 7 -20 25 -20 18 0 25 5 25 20 0 15 -7 20 -25 20
-18 0 -25 -5 -25 -20z"/>
<path d="M5490 5780 c0 -15 7 -20 25 -20 18 0 25 5 25 20 0 15 -7 20 -25 20
-18 0 -25 -5 -25 -20z"/>
<path d="M8260 5741 c0 -52 3 -61 18 -61 37 0 54 23 50 70 -3 43 -5 45 -35 48
l-33 3 0 -60z"/>
</g>
</svg>
